<svg width="16" height="16" viewBox="0 0 16 16" fill="none" xmlns="http://www.w3.org/2000/svg">
<path fill-rule="evenodd" clip-rule="evenodd" d="M6.42855 2.1451C7.60998 1.86487 8.84662 1.99241 9.95683 2.51174C10.4571 2.74575 11.0523 2.52991 11.2863 2.02965C11.5203 1.5294 11.3045 0.934155 10.8042 0.700147C9.28799 -0.00911845 7.59023 -0.185937 5.96696 0.199091C4.34434 0.583969 2.89258 1.50713 1.82345 2.82034C0.754904 4.13283 0.123805 5.76629 0.0164167 7.47603C-0.0909674 9.18569 0.330405 10.8896 1.22337 12.3345C2.11673 13.78 3.43718 14.8929 4.99495 15.4971C6.55359 16.1016 8.25904 16.1613 9.85384 15.6663C11.4479 15.1715 12.8375 14.152 13.8215 12.7701C14.805 11.389 15.3332 9.71707 15.3341 8.00379L15.3341 8.00324V7.35231C15.3341 6.80003 14.8864 6.35231 14.3341 6.35231C13.7818 6.35231 13.3341 6.80003 13.3341 7.35231V8.0027C13.3334 9.30808 12.9305 10.5734 12.1923 11.61C11.4547 12.6459 10.4243 13.3951 9.26094 13.7562C8.09835 14.1171 6.85674 14.074 5.71817 13.6324C4.57874 13.1905 3.59635 12.3699 2.9247 11.2831C2.25265 10.1956 1.93068 8.90386 2.01248 7.6014C2.09429 6.29902 2.57478 5.06527 3.37443 4.08305C4.17351 3.10155 5.24648 2.42548 6.42855 2.1451ZM15.722 2.4012C16.1029 2.0013 16.0875 1.36832 15.6876 0.987404C15.2877 0.606485 14.6548 0.62187 14.2738 1.02177L7.66418 7.96077L6.38814 6.62116C6.00722 6.22126 5.37424 6.20587 4.97435 6.58679C4.57445 6.96771 4.55906 7.60069 4.93998 8.00059L6.94009 10.1004C7.12883 10.2985 7.39053 10.4106 7.66418 10.4106C7.93782 10.4106 8.19952 10.2985 8.38826 10.1004L15.722 2.4012Z" fill="#2DA84F"/>
</svg>
